# Blender v2.76 (sub 0) OBJ File: 'iceroad.blend'
# www.blender.org
mtllib iceroad.mtl
o Cube
v 1.000000 -1.000000 -5.427651
v 1.000000 -1.000000 1.253428
v -1.000000 -1.000000 1.253428
v -1.000000 -1.000000 -5.427651
v 1.000000 1.000000 -5.427650
v 0.999999 1.000000 1.253428
v -1.000000 1.000000 1.253427
v -1.000000 1.000000 -5.427651
vt 0.000000 0.000000
vt 0.750000 1.000000
vt 0.750000 0.000000
vt 1.000000 0.000000
vt 1.000000 1.000000
vt 0.500000 1.000000
vt 0.250000 1.000000
vt 0.250000 0.000000
vt 0.500000 0.000000
vt 0.000000 1.000000
vn -0.000000 -0.000000 1.000000
vn 0.000000 0.000000 -1.000000
vn 0.000000 -1.000000 0.000000
vn 0.000000 1.000000 0.000000
vn 1.000000 0.000000 0.000000
vn -1.000000 -0.000000 -0.000000
usemtl Material
s off
f 2/1/1 6/1/1 7/1/1 3/1/1
f 5/1/2 1/1/2 4/1/2 8/1/2
usemtl Material.001
f 1/2/3 2/3/3 3/4/3 4/5/3
f 5/6/4 8/7/4 7/8/4 6/9/4
f 1/7/5 5/10/5 6/1/5 2/8/5
f 3/2/6 7/6/6 8/9/6 4/3/6
