# Blender v2.76 (sub 0) OBJ File: 'spikes.blend'
# www.blender.org
mtllib spikes.mtl
o Plane.001
v -0.449079 -2.492628 0.449080
v 0.000001 -2.492628 0.449080
v 0.000001 2.492634 -0.000000
v -0.449079 -2.492628 -0.000001
v 1.347242 -2.492628 0.449080
v 1.796322 -2.492628 0.449080
v 1.796322 1.037550 -0.000001
v 1.347242 -2.492628 -0.000001
v 1.347242 -2.492629 2.245400
v 1.796322 -2.492629 2.245400
v 1.796322 -0.317182 1.796320
v 1.347242 -2.492628 1.796320
v -2.245399 -2.492628 0.449080
v -1.796319 -2.492628 0.449080
v -1.796319 1.037550 -0.000001
v -2.245399 -2.492628 -0.000001
v -2.245399 -2.492629 2.245400
v -1.796319 -2.492629 2.245400
v -1.796319 -0.317182 1.796320
v -2.245399 -2.492628 1.796320
v -0.449079 -2.492629 2.245400
v 0.000001 -2.492629 2.245400
v 0.000001 1.037549 1.796320
v -0.449079 -2.492628 1.796320
v -2.245399 -2.492628 -1.347241
v -1.796319 -2.492628 -1.347241
v -1.796319 -0.317181 -1.796322
v -2.245399 -2.492628 -1.796322
v -0.449079 -2.492628 -1.347241
v 0.000001 -2.492628 -1.347241
v 0.000001 1.037550 -1.796322
v -0.449079 -2.492628 -1.796322
v 1.347242 -2.492628 -1.347241
v 1.796322 -2.492628 -1.347241
v 1.796322 -0.317181 -1.796322
v 1.347242 -2.492628 -1.796322
v 2.245402 -2.492628 -1.347241
v 2.694483 -2.492628 -1.347241
v 2.694483 -0.317181 -1.796322
v 2.245402 -2.492628 -1.796322
v 2.245402 -2.492628 -0.449081
v 2.694483 -2.492628 -0.449081
v 2.694483 -0.317181 -0.898161
v 2.245402 -2.492628 -0.898161
v 0.449082 -2.492628 -1.347241
v 0.898162 -2.492628 -1.347241
v 0.898162 1.037550 -1.796322
v 0.449082 -2.492628 -1.796322
v 0.449082 -2.492628 -0.449081
v 0.898162 -2.492628 -0.449081
v 0.898162 1.037550 -0.898160
v 0.449082 -2.492628 -0.898161
v 1.347242 -2.492628 -0.449081
v 1.796322 -2.492628 -0.449081
v 1.796322 1.037550 -0.898160
v 1.347242 -2.492628 -0.898161
v 0.449082 -2.492628 -2.245402
v 0.898162 -2.492628 -2.245402
v 0.898162 -0.317181 -2.694481
v 0.449082 -2.492628 -2.694482
v 1.347242 -2.492628 -2.245402
v 1.796322 -2.492628 -2.245402
v 1.796322 -0.317181 -2.694481
v 1.347242 -2.492628 -2.694482
v -1.347239 -2.492628 -1.347241
v -0.898159 -2.492628 -1.347241
v -0.898159 1.037550 -1.796322
v -1.347239 -2.492628 -1.796322
v -1.347239 -2.492628 -0.449081
v -0.898159 -2.492628 -0.449081
v -0.898159 1.037550 -0.898160
v -1.347239 -2.492628 -0.898161
v -0.449079 -2.492628 -0.449081
v 0.000001 -2.492628 -0.449081
v 0.000001 2.492634 -0.898160
v -0.449079 -2.492628 -0.898161
v -3.143560 -2.492628 -1.347241
v -2.694479 -2.492628 -1.347241
v -2.694479 -0.317181 -1.796322
v -3.143560 -2.492628 -1.796322
v -3.143560 -2.492628 -0.449081
v -2.694479 -2.492628 -0.449081
v -2.694479 -0.317181 -0.898161
v -3.143560 -2.492628 -0.898161
v -2.245399 -2.492628 -0.449081
v -1.796319 -2.492628 -0.449081
v -1.796319 1.037550 -0.898160
v -2.245399 -2.492628 -0.898161
v -3.143560 -2.492628 -2.245402
v -2.694479 -2.492628 -2.245402
v -2.694479 -0.317181 -2.694481
v -3.143560 -2.492628 -2.694482
v -2.245399 -2.492628 -2.245402
v -1.796319 -2.492628 -2.245402
v -1.796319 -0.317181 -2.694481
v -2.245399 -2.492628 -2.694482
v -1.347239 -2.492629 2.245400
v -0.898159 -2.492629 2.245400
v -0.898159 1.037549 1.796320
v -1.347239 -2.492628 1.796320
v -1.347239 -2.492629 3.143560
v -0.898159 -2.492629 3.143560
v -0.898159 -0.317182 2.694480
v -1.347239 -2.492629 2.694480
v -0.449079 -2.492629 3.143560
v 0.000001 -2.492620 3.143560
v 0.000001 1.037549 2.694481
v -0.449079 -2.492629 2.694480
v -3.143560 -2.492629 2.245400
v -2.694479 -2.492629 2.245400
v -2.694479 -0.317182 1.796320
v -3.143560 -2.492628 1.796320
v -3.143560 -2.492629 3.143560
v -2.694479 -2.492629 3.143560
v -2.694479 -0.317182 2.694480
v -3.143560 -2.492629 2.694480
v -2.245399 -2.492629 3.143560
v -1.796319 -2.492629 3.143560
v -1.796319 -0.317182 2.694480
v -2.245399 -2.492629 2.694480
v -3.143560 -2.492628 0.449080
v -2.694479 -2.492628 0.449080
v -2.694479 1.037550 -0.000001
v -3.143560 -2.492628 -0.000001
v -3.143560 -2.492628 1.347240
v -2.694479 -2.492628 1.347240
v -2.694479 -0.317182 0.898161
v -3.143560 -2.492628 0.898160
v -2.245399 -2.492628 1.347240
v -1.796319 -2.492628 1.347240
v -1.796319 1.037549 0.898161
v -2.245399 -2.492628 0.898160
v 2.245402 -2.492629 2.245400
v 2.694483 -2.492629 2.245400
v 2.694483 -0.317182 1.796320
v 2.245402 -2.492628 1.796320
v 2.245402 -2.492629 3.143560
v 2.694483 -2.492629 3.143560
v 2.694483 -0.317182 2.694480
v 2.245402 -2.492629 2.694480
v 0.449082 -2.492629 2.245400
v 0.898162 -2.492629 2.245400
v 0.898162 1.037549 1.796320
v 0.449082 -2.492628 1.796320
v 0.449082 -2.492629 3.143560
v 0.898162 -2.492629 3.143560
v 0.898162 -0.317182 2.694480
v 0.449082 -2.492629 2.694480
v 1.347242 -2.492629 3.143560
v 1.796322 -2.492629 3.143560
v 1.796322 -0.317182 2.694480
v 1.347242 -2.492629 2.694480
v 0.449082 -2.492628 0.449080
v 0.898162 -2.492628 0.449080
v 0.898162 2.492634 -0.000000
v 0.449082 -2.492628 -0.000001
v 0.449082 -2.492628 1.347240
v 0.898162 -2.492628 1.347240
v 0.898162 1.037549 0.898161
v 0.449082 -2.492628 0.898160
v 1.347242 -2.492628 1.347240
v 1.796322 -2.492628 1.347240
v 1.796322 1.037549 0.898161
v 1.347242 -2.492628 0.898160
v 2.245402 -2.492628 0.449080
v 2.694483 -2.492628 0.449080
v 2.694483 1.037550 -0.000001
v 2.245402 -2.492628 -0.000001
v 2.245402 -2.492628 1.347240
v 2.694483 -2.492628 1.347240
v 2.694483 -0.317182 0.898161
v 2.245402 -2.492628 0.898160
v -1.347239 -2.492628 0.449080
v -0.898159 -2.492628 0.449080
v -0.898159 2.492634 -0.000000
v -1.347239 -2.492628 -0.000001
v -1.347239 -2.492628 1.347240
v -0.898159 -2.492628 1.347240
v -0.898159 1.037549 0.898161
v -1.347239 -2.492628 0.898160
v -0.449079 -2.492628 1.347240
v 0.000001 -2.492628 1.347240
v 0.000001 2.492630 0.898161
v -0.449079 -2.492628 0.898160
v -1.347239 -2.492628 -2.245402
v -0.898159 -2.492628 -2.245402
v -0.898159 -0.317181 -2.694481
v -1.347239 -2.492628 -2.694482
v -0.449079 -2.492628 -2.245402
v 0.000001 -2.492628 -2.245402
v 0.000001 1.037550 -2.694481
v -0.449079 -2.492628 -2.694482
v 2.245402 -2.492628 -2.245402
v 2.694483 -2.492628 -2.245402
v 2.694483 -0.317181 -2.694481
v 2.245402 -2.492628 -2.694482
v 3.143563 -2.492628 -2.245402
v 3.143563 -2.492628 -2.694482
v 3.143563 -2.492628 -1.796322
v 2.245402 -2.492628 -3.143562
v 1.796322 -2.492628 -3.143562
v 2.694483 -2.492628 -3.143562
v -1.347239 -2.492628 -3.143562
v -1.796319 -2.492628 -3.143562
v -0.898159 -2.492628 -3.143562
v 3.143563 -2.492628 1.347240
v 3.143563 -2.492628 0.898160
v 3.143563 -2.492628 1.796320
v 3.143563 -2.492629 3.143560
v 3.143563 -2.492629 2.694480
v -2.694479 -2.492628 -3.143562
v -3.143560 -2.492628 -3.143562
v 0.449082 -2.492628 -3.143562
v 0.000001 -2.492628 -3.143562
v 0.898162 -2.492628 -3.143562
v 3.143563 -2.492628 -0.449081
v 3.143563 -2.492628 -0.898161
v 3.143563 -2.492628 -0.000001
v 3.143563 -2.492628 -1.347241
v 1.347242 -2.492628 -3.143562
v -2.245399 -2.492628 -3.143562
v 3.143563 -2.492629 2.245400
v 3.143563 -2.492628 0.449080
v -0.449079 -2.492628 -3.143562
v 3.143563 -2.492628 -3.143562
vn -0.701400 0.126400 0.701400
vn -0.695900 0.177100 0.695900
vn -0.678800 0.280200 0.678800
vn 0.678800 0.280200 0.678800
vn 0.678800 0.280200 -0.678800
vn -0.678800 0.280200 -0.678800
vn 0.695900 0.177100 -0.695900
vn -0.695900 0.177100 -0.695900
vn 0.695900 0.177100 0.695900
vn 0.701400 0.126400 0.701400
vn 0.701400 0.126400 -0.701400
vn -0.701400 0.126400 -0.701400
usemtl Material.001
s 1
f 1//1 2//1 3//1 4//1
f 5//2 6//2 7//2 8//2
f 9//3 10//3 11//3 12//3
f 13//2 14//2 15//2 16//2
f 17//3 18//3 19//3 20//3
f 21//2 22//2 23//2 24//2
f 25//3 26//3 27//3 28//3
f 29//2 30//2 31//2 32//2
f 33//3 34//3 35//3 36//3
f 37//3 38//3 39//3 40//3
f 41//3 42//3 43//3 44//3
f 45//2 46//2 47//2 48//2
f 49//2 50//2 51//2 52//2
f 53//2 54//2 55//2 56//2
f 57//3 58//3 59//3 60//3
f 61//3 62//3 63//3 64//3
f 65//2 66//2 67//2 68//2
f 69//2 70//2 71//2 72//2
f 73//1 74//1 75//1 76//1
f 77//3 78//3 79//3 80//3
f 81//3 82//3 83//3 84//3
f 85//2 86//2 87//2 88//2
f 89//3 90//3 91//3 92//3
f 93//3 94//3 95//3 96//3
f 97//2 98//2 99//2 100//2
f 101//3 102//3 103//3 104//3
f 105//2 106//2 107//2 108//2
f 109//3 110//3 111//3 112//3
f 113//3 114//3 115//3 116//3
f 117//3 118//3 119//3 120//3
f 121//2 122//2 123//2 124//2
f 125//3 126//3 127//3 128//3
f 129//2 130//2 131//2 132//2
f 133//3 134//3 135//3 136//3
f 137//3 138//3 139//3 140//3
f 141//2 142//2 143//2 144//2
f 145//3 146//3 147//3 148//3
f 149//3 150//3 151//3 152//3
f 153//1 154//1 155//1 156//1
f 157//2 158//2 159//2 160//2
f 161//2 162//2 163//2 164//2
f 165//2 166//2 167//2 168//2
f 169//3 170//3 171//3 172//3
f 173//1 174//1 175//1 176//1
f 177//2 178//2 179//2 180//2
f 181//1 182//1 183//1 184//1
f 185//3 186//3 187//3 188//3
f 189//2 190//2 191//2 192//2
f 193//3 194//3 195//3 196//3
f 194//4 197//4 198//4 195//4
f 39//5 199//5 197//5 194//5
f 62//4 193//4 196//4 63//4
f 35//5 40//5 193//5 62//5
f 40//6 39//6 194//6 193//6
f 63//5 196//5 200//5 201//5
f 196//6 195//6 202//6 200//6
f 186//4 189//4 192//4 187//4
f 67//7 32//7 189//7 186//7
f 32//8 31//8 190//8 189//8
f 94//4 185//4 188//4 95//4
f 27//5 68//5 185//5 94//5
f 68//8 67//8 186//8 185//8
f 95//5 188//5 203//5 204//5
f 188//6 187//6 205//6 203//6
f 178//9 181//9 184//9 179//9
f 99//7 24//7 181//7 178//7
f 24//8 23//8 182//8 181//8
f 130//9 177//9 180//9 131//9
f 19//5 100//5 177//5 130//5
f 100//8 99//8 178//8 177//8
f 14//9 173//9 176//9 15//9
f 131//7 180//7 173//7 14//7
f 180//8 179//8 174//8 173//8
f 170//4 206//4 207//4 171//4
f 135//5 208//5 206//5 170//5
f 162//9 169//9 172//9 163//9
f 11//5 136//5 169//5 162//5
f 136//6 135//6 170//6 169//6
f 6//9 165//9 168//9 7//9
f 163//7 172//7 165//7 6//7
f 172//6 171//6 166//6 165//6
f 158//9 161//9 164//9 159//9
f 143//7 12//7 161//7 158//7
f 12//6 11//6 162//6 161//6
f 182//10 157//10 160//10 183//10
f 23//7 144//7 157//7 182//7
f 144//8 143//8 158//8 157//8
f 2//10 153//10 156//10 3//10
f 183//11 160//11 153//11 2//11
f 160//8 159//8 154//8 153//8
f 146//4 149//4 152//4 147//4
f 106//9 145//9 148//9 107//9
f 22//9 141//9 144//9 23//9
f 107//7 148//7 141//7 22//7
f 148//6 147//6 142//6 141//6
f 138//4 209//4 210//4 139//4
f 150//4 137//4 140//4 151//4
f 10//4 133//4 136//4 11//4
f 151//5 140//5 133//5 10//5
f 140//6 139//6 134//6 133//6
f 126//4 129//4 132//4 127//4
f 111//5 20//5 129//5 126//5
f 20//6 19//6 130//6 129//6
f 112//6 111//6 126//6 125//6
f 128//6 127//6 122//6 121//6
f 114//4 117//4 120//4 115//4
f 116//6 115//6 110//6 109//6
f 102//4 105//4 108//4 103//4
f 118//4 101//4 104//4 119//4
f 18//4 97//4 100//4 19//4
f 119//5 104//5 97//5 18//5
f 104//6 103//6 98//6 97//6
f 90//4 93//4 96//4 91//4
f 79//5 28//5 93//5 90//5
f 28//6 27//6 94//6 93//6
f 80//6 79//6 90//6 89//6
f 92//6 91//6 211//6 212//6
f 82//4 85//4 88//4 83//4
f 123//7 16//7 85//7 82//7
f 16//8 15//8 86//8 85//8
f 124//8 123//8 82//8 81//8
f 84//6 83//6 78//6 77//6
f 70//9 73//9 76//9 71//9
f 175//11 4//11 73//11 70//11
f 4//12 3//12 74//12 73//12
f 86//9 69//9 72//9 87//9
f 15//7 176//7 69//7 86//7
f 176//12 175//12 70//12 69//12
f 26//4 65//4 68//4 27//4
f 87//7 72//7 65//7 26//7
f 72//8 71//8 66//8 65//8
f 58//4 61//4 64//4 59//4
f 47//7 36//7 61//7 58//7
f 36//6 35//6 62//6 61//6
f 190//9 57//9 60//9 191//9
f 31//7 48//7 57//7 190//7
f 48//8 47//8 58//8 57//8
f 191//7 60//7 213//7 214//7
f 60//6 59//6 215//6 213//6
f 50//9 53//9 56//9 51//9
f 155//11 8//11 53//11 50//11
f 8//8 7//8 54//8 53//8
f 74//10 49//10 52//10 75//10
f 3//11 156//11 49//11 74//11
f 156//12 155//12 50//12 49//12
f 30//9 45//9 48//9 31//9
f 75//11 52//11 45//11 30//11
f 52//8 51//8 46//8 45//8
f 42//4 216//4 217//4 43//4
f 167//7 218//7 216//7 42//7
f 54//9 41//9 44//9 55//9
f 7//7 168//7 41//7 54//7
f 168//8 167//8 42//8 41//8
f 34//4 37//4 40//4 35//4
f 55//7 44//7 37//7 34//7
f 44//6 43//6 38//6 37//6
f 38//4 219//4 199//4 39//4
f 43//5 217//5 219//5 38//5
f 46//9 33//9 36//9 47//9
f 51//7 56//7 33//7 46//7
f 56//8 55//8 34//8 33//8
f 59//5 64//5 220//5 215//5
f 64//6 63//6 201//6 220//6
f 66//9 29//9 32//9 67//9
f 71//7 76//7 29//7 66//7
f 76//12 75//12 30//12 29//12
f 78//4 25//4 28//4 79//4
f 83//5 88//5 25//5 78//5
f 88//8 87//8 26//8 25//8
f 91//5 96//5 221//5 211//5
f 96//6 95//6 204//6 221//6
f 98//9 21//9 24//9 99//9
f 103//5 108//5 21//5 98//5
f 108//8 107//8 22//8 21//8
f 110//4 17//4 20//4 111//4
f 115//5 120//5 17//5 110//5
f 120//6 119//6 18//6 17//6
f 122//9 13//9 16//9 123//9
f 127//5 132//5 13//5 122//5
f 132//8 131//8 14//8 13//8
f 134//4 222//4 208//4 135//4
f 139//5 210//5 222//5 134//5
f 142//9 9//9 12//9 143//9
f 147//5 152//5 9//5 142//5
f 152//6 151//6 10//6 9//6
f 154//10 5//10 8//10 155//10
f 159//7 164//7 5//7 154//7
f 164//8 163//8 6//8 5//8
f 166//9 223//9 218//9 167//9
f 171//5 207//5 223//5 166//5
f 174//10 1//10 4//10 175//10
f 179//7 184//7 1//7 174//7
f 184//12 183//12 2//12 1//12
f 187//5 192//5 224//5 205//5
f 192//8 191//8 214//8 224//8
f 195//5 198//5 225//5 202//5
