# Blender v2.72 (sub 0) OBJ File: 'testchar.blend'
# www.blender.org
mtllib testchar.mtl
o Cylinder_Cylinder.002
v 0.000000 -1.000000 0.000000
v 0.000000 1.000000 0.000000
v 0.000000 -1.000000 -0.500000
v 0.000000 1.000000 -0.500000
v 0.097545 -1.000000 -0.490393
v 0.097545 1.000000 -0.490393
v 0.191342 -1.000000 -0.461940
v 0.191342 1.000000 -0.461940
v 0.277785 -1.000000 -0.415735
v 0.277785 1.000000 -0.415735
v 0.353553 -1.000000 -0.353553
v 0.353553 1.000000 -0.353553
v 0.415735 -1.000000 -0.277785
v 0.415735 1.000000 -0.277785
v 0.461940 -1.000000 -0.191342
v 0.461940 1.000000 -0.191342
v 0.490393 -1.000000 -0.097545
v 0.490393 1.000000 -0.097545
v 0.500000 -1.000000 -0.000000
v 0.500000 1.000000 -0.000000
v 0.490393 -1.000000 0.097545
v 0.490393 1.000000 0.097545
v 0.461940 -1.000000 0.191342
v 0.461940 1.000000 0.191342
v 0.415735 -1.000000 0.277785
v 0.415735 1.000000 0.277785
v 0.353553 -1.000000 0.353553
v 0.353553 1.000000 0.353553
v 0.277785 -1.000000 0.415735
v 0.277785 1.000000 0.415735
v 0.191342 -1.000000 0.461940
v 0.191342 1.000000 0.461940
v 0.097545 -1.000000 0.490393
v 0.097545 1.000000 0.490393
v -0.000000 -1.000000 0.500000
v -0.000000 1.000000 0.500000
v -0.097545 -1.000000 0.490393
v -0.097545 1.000000 0.490393
v -0.191342 -1.000000 0.461940
v -0.191342 1.000000 0.461940
v -0.277785 -1.000000 0.415735
v -0.277785 1.000000 0.415735
v -0.353554 -1.000000 0.353553
v -0.353554 1.000000 0.353553
v -0.415735 -1.000000 0.277785
v -0.415735 1.000000 0.277785
v -0.461940 -1.000000 0.191341
v -0.461940 1.000000 0.191341
v -0.490393 -1.000000 0.097545
v -0.490393 1.000000 0.097545
v -0.500000 -1.000000 -0.000000
v -0.500000 1.000000 -0.000000
v -0.490393 -1.000000 -0.097546
v -0.490393 1.000000 -0.097546
v -0.461940 -1.000000 -0.191342
v -0.461940 1.000000 -0.191342
v -0.415734 -1.000000 -0.277786
v -0.415734 1.000000 -0.277786
v -0.353553 -1.000000 -0.353554
v -0.353553 1.000000 -0.353554
v -0.277785 -1.000000 -0.415735
v -0.277785 1.000000 -0.415735
v -0.191341 -1.000000 -0.461940
v -0.191341 1.000000 -0.461940
v -0.097544 -1.000000 -0.490393
v -0.097544 1.000000 -0.490393
v -0.292788 0.826297 -0.502443
v -0.266508 0.843959 -0.533347
vt 0.238819 0.823831
vt 0.163695 0.683283
vt 0.192558 0.671328
vt 0.769191 0.817971
vt 0.753570 0.976569
vt 0.722930 0.970474
vt 0.500000 0.637602
vt 0.468759 0.637602
vt 0.468759 0.000143
vt 0.223198 0.665233
vt 0.784811 0.976569
vt 0.437518 0.637602
vt 0.437518 0.000143
vt 0.254439 0.665233
vt 0.815452 0.970474
vt 0.406277 0.637602
vt 0.406277 0.000143
vt 0.285080 0.671328
vt 0.844315 0.958519
vt 0.375036 0.637602
vt 0.375036 0.000143
vt 0.313943 0.683283
vt 0.870291 0.941162
vt 0.343795 0.637602
vt 0.343795 0.000143
vt 0.339919 0.700640
vt 0.892382 0.919072
vt 0.312554 0.637602
vt 0.312554 0.000143
vt 0.362009 0.722730
vt 0.909738 0.893096
vt 0.281313 0.637602
vt 0.281313 0.000143
vt 0.379366 0.748706
vt 0.921694 0.864233
vt 0.250073 0.637602
vt 0.250072 0.000143
vt 0.391322 0.777569
vt 0.927789 0.833593
vt 0.218832 0.637602
vt 0.218830 0.000143
vt 0.397416 0.808210
vt 0.927789 0.802351
vt 0.187591 0.637602
vt 0.187589 0.000144
vt 0.397417 0.839450
vt 0.921694 0.771711
vt 0.156350 0.637602
vt 0.156348 0.000144
vt 0.391322 0.870091
vt 0.909739 0.742848
vt 0.125109 0.637602
vt 0.125107 0.000144
vt 0.379367 0.898954
vt 0.892383 0.716872
vt 0.093868 0.637602
vt 0.093866 0.000144
vt 0.362010 0.924930
vt 0.870292 0.694781
vt 0.062627 0.637603
vt 0.062625 0.000144
vt 0.339920 0.947021
vt 0.844316 0.677424
vt 0.031386 0.637603
vt 0.031384 0.000144
vt 0.313944 0.964377
vt 0.815454 0.665469
vt 0.000145 0.637603
vt 0.000143 0.000144
vt 0.285080 0.976334
vt 0.784811 0.659374
vt 0.999856 0.637603
vt 0.968615 0.637602
vt 0.968616 0.000144
vt 0.254439 0.982428
vt 0.753571 0.659374
vt 0.937374 0.637602
vt 0.937375 0.000144
vt 0.223198 0.982428
vt 0.722930 0.665468
vt 0.906133 0.637602
vt 0.906133 0.000144
vt 0.192557 0.976333
vt 0.694067 0.677424
vt 0.874892 0.637602
vt 0.874892 0.000144
vt 0.163695 0.964378
vt 0.668091 0.694780
vt 0.843651 0.637602
vt 0.843651 0.000143
vt 0.137719 0.947021
vt 0.646001 0.716871
vt 0.812410 0.637602
vt 0.812410 0.000143
vt 0.115628 0.924930
vt 0.628644 0.742847
vt 0.781169 0.637602
vt 0.781169 0.000143
vt 0.098272 0.898954
vt 0.616689 0.771710
vt 0.749928 0.637602
vt 0.749928 0.000143
vt 0.086316 0.870091
vt 0.610594 0.802350
vt 0.718687 0.637602
vt 0.718687 0.000143
vt 0.080221 0.839451
vt 0.610594 0.833592
vt 0.687446 0.637602
vt 0.687446 0.000143
vt 0.080221 0.808210
vt 0.616689 0.864232
vt 0.656205 0.637602
vt 0.656205 0.000143
vt 0.086316 0.777569
vt 0.628644 0.893095
vt 0.624964 0.637602
vt 0.624964 0.000143
vt 0.098272 0.748706
vt 0.646001 0.919071
vt 0.593723 0.637602
vt 0.593723 0.000143
vt 0.115629 0.722730
vt 0.668091 0.941162
vt 0.562482 0.637602
vt 0.562482 0.000143
vt 0.137719 0.700639
vt 0.694067 0.958518
vt 0.531241 0.637602
vt 0.531241 0.000143
vt 0.500000 0.000143
vt 0.999857 0.000144
vn 0.000000 -1.000000 0.000000
vn 0.000000 1.000000 0.000000
vn 0.098000 0.000000 -0.995200
vn 0.290300 0.000000 -0.956900
vn 0.471400 0.000000 -0.881900
vn 0.634400 0.000000 -0.773000
vn 0.773000 0.000000 -0.634400
vn 0.881900 0.000000 -0.471400
vn 0.956900 0.000000 -0.290300
vn 0.995200 0.000000 -0.098000
vn 0.995200 0.000000 0.098000
vn 0.956900 0.000000 0.290300
vn 0.881900 0.000000 0.471400
vn 0.773000 0.000000 0.634400
vn 0.634400 0.000000 0.773000
vn 0.471400 0.000000 0.881900
vn 0.290300 0.000000 0.956900
vn 0.098000 0.000000 0.995200
vn -0.098000 0.000000 0.995200
vn -0.290300 0.000000 0.956900
vn -0.471400 0.000000 0.881900
vn -0.634400 0.000000 0.773000
vn -0.773000 0.000000 0.634400
vn -0.881900 0.000000 0.471400
vn -0.956900 0.000000 0.290300
vn -0.995200 0.000000 0.098000
vn -0.995200 0.000000 -0.098000
vn -0.956900 0.000000 -0.290300
vn -0.881900 0.000000 -0.471400
vn -0.773000 0.000000 -0.634400
vn -0.634400 0.000000 -0.773000
vn -0.471400 0.000000 -0.881900
vn -0.290300 0.000000 -0.956900
vn -0.098000 0.000000 -0.995200
usemtl Material.001
s off
f 1/1/1 3/2/1 5/3/1
f 2/4/2 6/5/2 4/6/2
f 4/7/3 6/8/3 5/9/3
f 1/1/1 5/3/1 7/10/1
f 2/4/2 8/11/2 6/5/2
f 6/8/4 8/12/4 7/13/4
f 1/1/1 7/10/1 9/14/1
f 2/4/2 10/15/2 8/11/2
f 8/12/5 10/16/5 9/17/5
f 1/1/1 9/14/1 11/18/1
f 2/4/2 12/19/2 10/15/2
f 10/16/6 12/20/6 11/21/6
f 1/1/1 11/18/1 13/22/1
f 2/4/2 14/23/2 12/19/2
f 12/20/7 14/24/7 13/25/7
f 1/1/1 13/22/1 15/26/1
f 2/4/2 16/27/2 14/23/2
f 14/24/8 16/28/8 15/29/8
f 1/1/1 15/26/1 17/30/1
f 2/4/2 18/31/2 16/27/2
f 16/28/9 18/32/9 17/33/9
f 1/1/1 17/30/1 19/34/1
f 2/4/2 20/35/2 18/31/2
f 18/32/10 20/36/10 19/37/10
f 1/1/1 19/34/1 21/38/1
f 2/4/2 22/39/2 20/35/2
f 20/36/11 22/40/11 21/41/11
f 1/1/1 21/38/1 23/42/1
f 2/4/2 24/43/2 22/39/2
f 22/40/12 24/44/12 23/45/12
f 1/1/1 23/42/1 25/46/1
f 2/4/2 26/47/2 24/43/2
f 24/44/13 26/48/13 25/49/13
f 1/1/1 25/46/1 27/50/1
f 2/4/2 28/51/2 26/47/2
f 26/48/14 28/52/14 27/53/14
f 1/1/1 27/50/1 29/54/1
f 2/4/2 30/55/2 28/51/2
f 28/52/15 30/56/15 29/57/15
f 1/1/1 29/54/1 31/58/1
f 2/4/2 32/59/2 30/55/2
f 30/56/16 32/60/16 31/61/16
f 1/1/1 31/58/1 33/62/1
f 2/4/2 34/63/2 32/59/2
f 32/60/17 34/64/17 33/65/17
f 1/1/1 33/62/1 35/66/1
f 2/4/2 36/67/2 34/63/2
f 34/64/18 36/68/18 35/69/18
f 1/1/1 35/66/1 37/70/1
f 2/4/2 38/71/2 36/67/2
f 36/72/19 38/73/19 37/74/19
f 1/1/1 37/70/1 39/75/1
f 2/4/2 40/76/2 38/71/2
f 38/73/20 40/77/20 39/78/20
f 1/1/1 39/75/1 41/79/1
f 2/4/2 42/80/2 40/76/2
f 40/77/21 42/81/21 41/82/21
f 1/1/1 41/79/1 43/83/1
f 2/4/2 44/84/2 42/80/2
f 42/81/22 44/85/22 43/86/22
f 1/1/1 43/83/1 45/87/1
f 2/4/2 46/88/2 44/84/2
f 44/85/23 46/89/23 45/90/23
f 1/1/1 45/87/1 47/91/1
f 2/4/2 48/92/2 46/88/2
f 46/89/24 48/93/24 47/94/24
f 1/1/1 47/91/1 49/95/1
f 2/4/2 50/96/2 48/92/2
f 48/93/25 50/97/25 49/98/25
f 1/1/1 49/95/1 51/99/1
f 2/4/2 52/100/2 50/96/2
f 50/97/26 52/101/26 51/102/26
f 1/1/1 51/99/1 53/103/1
f 2/4/2 54/104/2 52/100/2
f 52/101/27 54/105/27 53/106/27
f 1/1/1 53/103/1 55/107/1
f 2/4/2 56/108/2 54/104/2
f 54/105/28 56/109/28 55/110/28
f 1/1/1 55/107/1 57/111/1
f 2/4/2 58/112/2 56/108/2
f 56/109/29 58/113/29 57/114/29
f 1/1/1 57/111/1 59/115/1
f 2/4/2 60/116/2 58/112/2
f 58/113/30 60/117/30 59/118/30
f 1/1/1 59/115/1 61/119/1
f 2/4/2 62/120/2 60/116/2
f 60/117/31 62/121/31 61/122/31
f 1/1/1 61/119/1 63/123/1
f 2/4/2 64/124/2 62/120/2
f 62/121/32 64/125/32 63/126/32
f 1/1/1 63/123/1 65/127/1
f 2/4/2 66/128/2 64/124/2
f 64/125/33 66/129/33 65/130/33
f 1/1/1 65/127/1 3/2/1
f 2/4/2 4/6/2 66/128/2
f 66/129/34 4/7/34 3/131/34
f 3/131/3 4/7/3 5/9/3
f 5/9/4 6/8/4 7/13/4
f 7/13/5 8/12/5 9/17/5
f 9/17/6 10/16/6 11/21/6
f 11/21/7 12/20/7 13/25/7
f 13/25/8 14/24/8 15/29/8
f 15/29/9 16/28/9 17/33/9
f 17/33/10 18/32/10 19/37/10
f 19/37/11 20/36/11 21/41/11
f 21/41/12 22/40/12 23/45/12
f 23/45/13 24/44/13 25/49/13
f 25/49/14 26/48/14 27/53/14
f 27/53/15 28/52/15 29/57/15
f 29/57/16 30/56/16 31/61/16
f 31/61/17 32/60/17 33/65/17
f 33/65/18 34/64/18 35/69/18
f 35/132/19 36/72/19 37/74/19
f 37/74/20 38/73/20 39/78/20
f 39/78/21 40/77/21 41/82/21
f 41/82/22 42/81/22 43/86/22
f 43/86/23 44/85/23 45/90/23
f 45/90/24 46/89/24 47/94/24
f 47/94/25 48/93/25 49/98/25
f 49/98/26 50/97/26 51/102/26
f 51/102/27 52/101/27 53/106/27
f 53/106/28 54/105/28 55/110/28
f 55/110/29 56/109/29 57/114/29
f 57/114/30 58/113/30 59/118/30
f 59/118/31 60/117/31 61/122/31
f 61/122/32 62/121/32 63/126/32
f 63/126/33 64/125/33 65/130/33
f 65/130/34 66/129/34 3/131/34
l 67 68
