# Blender v2.72 (sub 0) OBJ File: 'testbound.blend'
# www.blender.org
mtllib testbound.mtl
o Cube_Cube.001
v -0.500000 -0.500000 0.500000
v -0.500000 -0.500000 -0.500000
v 0.500000 -0.500000 -0.500000
v 0.500000 -0.500000 0.500000
v -0.500000 0.500000 0.500000
v -0.500000 0.500000 -0.500000
v 0.500000 0.500000 -0.500000
v 0.500000 0.500000 0.500000
vt 0.999900 0.000100
vt 0.999900 0.999900
vt 0.000100 0.999900
vt 0.000100 0.000100
vn -1.000000 0.000000 0.000000
vn 1.000000 0.000000 0.000000
vn 0.000000 0.000000 1.000000
vn 0.000000 1.000000 0.000000
g Cube_Cube.001_Material.001
usemtl Material.001
s off
f 6/1/1 2/2/1 1/3/1
f 5/4/1 6/1/1 1/3/1
usemtl Material.001
f 5/3/3 1/4/3 4/1/3
f 8/2/3 5/3/3 4/1/3
usemtl Material.001
f 7/2/2 8/3/2 3/1/2
f 8/3/2 4/4/2 3/1/2
g Cube_Cube.001_Material.002
usemtl Material.002
f 7/2/4 6/3/4 5/4/4
f 8/1/4 7/2/4 5/4/4
