# Blender v2.72 (sub 0) OBJ File: 'cube.blend'
# www.blender.org
mtllib skybox.mtl
o Cube
v 1.000000 -1.000000 -1.000000
v 1.000000 -1.000000 1.000000
v -1.000000 -1.000000 1.000000
v -1.000000 -1.000000 -1.000000
v 1.000000 1.000000 -1.000000
v 1.000000 1.000000 1.000000
v -1.000000 1.000000 1.000000
v -1.000000 1.000000 -1.000000
vt 0.500000 0.250000
vt 0.500000 0.500000
vt 0.250000 0.500000
vt 0.250000 0.750000
vt 0.500000 0.750000
vt 0.500000 1.000000
vt 1.000000 0.500000
vt 1.000000 0.750000
vt 0.750000 0.750000
vt 0.750000 0.500000
vt 0.000000 0.500000
vt 0.250000 0.250000
vt 0.250000 1.000000
vt 0.000000 0.750000
vn 0.000000 -1.000000 0.000000
vn 0.000000 1.000000 0.000000
vn 1.000000 -0.000000 0.000000
vn -0.000000 -0.000000 1.000000
vn -1.000000 -0.000000 -0.000000
vn 0.000000 0.000000 -1.000000
usemtl sky
s off
f 2/1/1 3/2/1 4/3/1
f 8/4/2 7/5/2 6/6/2
f 1/7/3 5/8/3 6/9/3
f 2/10/4 6/9/4 7/5/4
f 7/5/5 8/4/5 4/3/5
f 1/11/6 4/3/6 8/4/6
f 1/12/1 2/1/1 4/3/1
f 5/13/2 8/4/2 6/6/2
f 2/10/3 1/7/3 6/9/3
f 3/2/4 2/10/4 7/5/4
f 3/2/5 7/5/5 4/3/5
f 5/14/6 1/11/6 8/4/6
