# Blender v2.72 (sub 0) OBJ File: 'spikes.blend'
# www.blender.org
mtllib spikes.mtl
o Plane.001
v -0.449079 -2.492628 0.449080
v 0.000001 -2.492628 0.449080
v 0.000001 2.492634 -0.000000
v -0.449079 -2.492628 -0.000001
v 1.347242 -2.492628 0.449080
v 1.796322 -2.492628 0.449080
v 1.796322 1.037550 -0.000001
v 1.347242 -2.492628 -0.000001
v 1.347242 -2.492629 2.245400
v 1.796322 -2.492629 2.245400
v 1.796322 -0.317182 1.796320
v 1.347242 -2.492628 1.796320
v -2.245399 -2.492628 0.449080
v -1.796319 -2.492628 0.449080
v -1.796319 1.037550 -0.000001
v -2.245399 -2.492628 -0.000001
v -2.245399 -2.492629 2.245400
v -1.796319 -2.492629 2.245400
v -1.796319 -0.317182 1.796320
v -2.245399 -2.492628 1.796320
v -0.449079 -2.492629 2.245400
v 0.000001 -2.492629 2.245400
v 0.000001 1.037549 1.796320
v -0.449079 -2.492628 1.796320
v -2.245399 -2.492628 -1.347241
v -1.796319 -2.492628 -1.347241
v -1.796319 -0.317181 -1.796322
v -2.245399 -2.492628 -1.796322
v -0.449079 -2.492628 -1.347241
v 0.000001 -2.492628 -1.347241
v 0.000001 1.037550 -1.796322
v -0.449079 -2.492628 -1.796322
v 1.347242 -2.492628 -1.347241
v 1.796322 -2.492628 -1.347241
v 1.796322 -0.317181 -1.796322
v 1.347242 -2.492628 -1.796322
v 2.245402 -2.492628 -1.347241
v 2.694483 -2.492628 -1.347241
v 2.694483 -0.317181 -1.796322
v 2.245402 -2.492628 -1.796322
v 2.245402 -2.492628 -0.449081
v 2.694483 -2.492628 -0.449081
v 2.694483 -0.317181 -0.898161
v 2.245402 -2.492628 -0.898161
v 0.449082 -2.492628 -1.347241
v 0.898162 -2.492628 -1.347241
v 0.898162 1.037550 -1.796322
v 0.449082 -2.492628 -1.796322
v 0.449082 -2.492628 -0.449081
v 0.898162 -2.492628 -0.449081
v 0.898162 1.037550 -0.898160
v 0.449082 -2.492628 -0.898161
v 1.347242 -2.492628 -0.449081
v 1.796322 -2.492628 -0.449081
v 1.796322 1.037550 -0.898160
v 1.347242 -2.492628 -0.898161
v 0.449082 -2.492628 -2.245402
v 0.898162 -2.492628 -2.245402
v 0.898162 -0.317181 -2.694481
v 0.449082 -2.492628 -2.694482
v 1.347242 -2.492628 -2.245402
v 1.796322 -2.492628 -2.245402
v 1.796322 -0.317181 -2.694481
v 1.347242 -2.492628 -2.694482
v -1.347239 -2.492628 -1.347241
v -0.898159 -2.492628 -1.347241
v -0.898159 1.037550 -1.796322
v -1.347239 -2.492628 -1.796322
v -1.347239 -2.492628 -0.449081
v -0.898159 -2.492628 -0.449081
v -0.898159 1.037550 -0.898160
v -1.347239 -2.492628 -0.898161
v -0.449079 -2.492628 -0.449081
v 0.000001 -2.492628 -0.449081
v 0.000001 2.492634 -0.898160
v -0.449079 -2.492628 -0.898161
v -3.143560 -2.492628 -1.347241
v -2.694479 -2.492628 -1.347241
v -2.694479 -0.317181 -1.796322
v -3.143560 -2.492628 -1.796322
v -3.143560 -2.492628 -0.449081
v -2.694479 -2.492628 -0.449081
v -2.694479 -0.317181 -0.898161
v -3.143560 -2.492628 -0.898161
v -2.245399 -2.492628 -0.449081
v -1.796319 -2.492628 -0.449081
v -1.796319 1.037550 -0.898160
v -2.245399 -2.492628 -0.898161
v -3.143560 -2.492628 -2.245402
v -2.694479 -2.492628 -2.245402
v -2.694479 -0.317181 -2.694481
v -3.143560 -2.492628 -2.694482
v -2.245399 -2.492628 -2.245402
v -1.796319 -2.492628 -2.245402
v -1.796319 -0.317181 -2.694481
v -2.245399 -2.492628 -2.694482
v -1.347239 -2.492629 2.245400
v -0.898159 -2.492629 2.245400
v -0.898159 1.037549 1.796320
v -1.347239 -2.492628 1.796320
v -1.347239 -2.492629 3.143560
v -0.898159 -2.492629 3.143560
v -0.898159 -0.317182 2.694480
v -1.347239 -2.492629 2.694480
v -0.449079 -2.492629 3.143560
v 0.000001 -2.492620 3.143560
v 0.000001 1.037549 2.694481
v -0.449079 -2.492629 2.694480
v -3.143560 -2.492629 2.245400
v -2.694479 -2.492629 2.245400
v -2.694479 -0.317182 1.796320
v -3.143560 -2.492628 1.796320
v -3.143560 -2.492629 3.143560
v -2.694479 -2.492629 3.143560
v -2.694479 -0.317182 2.694480
v -3.143560 -2.492629 2.694480
v -2.245399 -2.492629 3.143560
v -1.796319 -2.492629 3.143560
v -1.796319 -0.317182 2.694480
v -2.245399 -2.492629 2.694480
v -3.143560 -2.492628 0.449080
v -2.694479 -2.492628 0.449080
v -2.694479 1.037550 -0.000001
v -3.143560 -2.492628 -0.000001
v -3.143560 -2.492628 1.347240
v -2.694479 -2.492628 1.347240
v -2.694479 -0.317182 0.898161
v -3.143560 -2.492628 0.898160
v -2.245399 -2.492628 1.347240
v -1.796319 -2.492628 1.347240
v -1.796319 1.037549 0.898161
v -2.245399 -2.492628 0.898160
v 2.245402 -2.492629 2.245400
v 2.694483 -2.492629 2.245400
v 2.694483 -0.317182 1.796320
v 2.245402 -2.492628 1.796320
v 2.245402 -2.492629 3.143560
v 2.694483 -2.492629 3.143560
v 2.694483 -0.317182 2.694480
v 2.245402 -2.492629 2.694480
v 0.449082 -2.492629 2.245400
v 0.898162 -2.492629 2.245400
v 0.898162 1.037549 1.796320
v 0.449082 -2.492628 1.796320
v 0.449082 -2.492629 3.143560
v 0.898162 -2.492629 3.143560
v 0.898162 -0.317182 2.694480
v 0.449082 -2.492629 2.694480
v 1.347242 -2.492629 3.143560
v 1.796322 -2.492629 3.143560
v 1.796322 -0.317182 2.694480
v 1.347242 -2.492629 2.694480
v 0.449082 -2.492628 0.449080
v 0.898162 -2.492628 0.449080
v 0.898162 2.492634 -0.000000
v 0.449082 -2.492628 -0.000001
v 0.449082 -2.492628 1.347240
v 0.898162 -2.492628 1.347240
v 0.898162 1.037549 0.898161
v 0.449082 -2.492628 0.898160
v 1.347242 -2.492628 1.347240
v 1.796322 -2.492628 1.347240
v 1.796322 1.037549 0.898161
v 1.347242 -2.492628 0.898160
v 2.245402 -2.492628 0.449080
v 2.694483 -2.492628 0.449080
v 2.694483 1.037550 -0.000001
v 2.245402 -2.492628 -0.000001
v 2.245402 -2.492628 1.347240
v 2.694483 -2.492628 1.347240
v 2.694483 -0.317182 0.898161
v 2.245402 -2.492628 0.898160
v -1.347239 -2.492628 0.449080
v -0.898159 -2.492628 0.449080
v -0.898159 2.492634 -0.000000
v -1.347239 -2.492628 -0.000001
v -1.347239 -2.492628 1.347240
v -0.898159 -2.492628 1.347240
v -0.898159 1.037549 0.898161
v -1.347239 -2.492628 0.898160
v -0.449079 -2.492628 1.347240
v 0.000001 -2.492628 1.347240
v 0.000001 2.492630 0.898161
v -0.449079 -2.492628 0.898160
v -1.347239 -2.492628 -2.245402
v -0.898159 -2.492628 -2.245402
v -0.898159 -0.317181 -2.694481
v -1.347239 -2.492628 -2.694482
v -0.449079 -2.492628 -2.245402
v 0.000001 -2.492628 -2.245402
v 0.000001 1.037550 -2.694481
v -0.449079 -2.492628 -2.694482
v 2.245402 -2.492628 -2.245402
v 2.694483 -2.492628 -2.245402
v 2.694483 -0.317181 -2.694481
v 2.245402 -2.492628 -2.694482
v 3.143563 -2.492628 -2.245402
v 3.143563 -2.492628 -2.694482
v 3.143563 -2.492628 -1.796322
v 2.245402 -2.492628 -3.143562
v 1.796322 -2.492628 -3.143562
v 2.694483 -2.492628 -3.143562
v -1.347239 -2.492628 -3.143562
v -1.796319 -2.492628 -3.143562
v -0.898159 -2.492628 -3.143562
v 3.143563 -2.492628 1.347240
v 3.143563 -2.492628 0.898160
v 3.143563 -2.492628 1.796320
v 3.143563 -2.492629 3.143560
v 3.143563 -2.492629 2.694480
v -2.694479 -2.492628 -3.143562
v -3.143560 -2.492628 -3.143562
v 0.449082 -2.492628 -3.143562
v 0.000001 -2.492628 -3.143562
v 0.898162 -2.492628 -3.143562
v 3.143563 -2.492628 -0.449081
v 3.143563 -2.492628 -0.898161
v 3.143563 -2.492628 -0.000001
v 3.143563 -2.492628 -1.347241
v 1.347242 -2.492628 -3.143562
v -2.245399 -2.492628 -3.143562
v 3.143563 -2.492629 2.245400
v 3.143563 -2.492628 0.449080
v -0.449079 -2.492628 -3.143562
v 3.143563 -2.492628 -3.143562
vt 0.429780 0.570027
vt 0.429854 0.499904
vt 0.500000 0.500000
vt 0.430167 0.289625
vt 0.430219 0.219594
vt 0.500379 0.219725
vt 0.149822 0.289208
vt 0.149918 0.219173
vt 0.220074 0.219300
vt 0.429393 0.850352
vt 0.429458 0.780227
vt 0.499622 0.780275
vt 0.148998 0.850035
vt 0.149075 0.779894
vt 0.219263 0.779964
vt 0.149454 0.569640
vt 0.149504 0.499500
vt 0.219725 0.499605
vt 0.709824 0.850758
vt 0.709939 0.780569
vt 0.779926 0.780700
vt 0.710181 0.570415
vt 0.710309 0.500294
vt 0.780275 0.500396
vt 0.710590 0.289992
vt 0.710727 0.219978
vt 0.780738 0.220037
vt 0.710797 0.149766
vt 0.710969 0.079695
vt 0.781042 0.079646
vt 0.570608 0.149648
vt 0.570664 0.079683
vt 0.640711 0.079439
vt 0.710383 0.430171
vt 0.710521 0.360154
vt 0.780517 0.360257
vt 0.570221 0.429974
vt 0.570338 0.359921
vt 0.640382 0.360006
vt 0.570411 0.289811
vt 0.570543 0.219774
vt 0.640519 0.219871
vt 0.850546 0.430362
vt 0.850749 0.360435
vt 0.920948 0.360453
vt 0.850816 0.290173
vt 0.850926 0.220108
vt 0.921130 0.220123
vt 0.709992 0.710573
vt 0.710120 0.640424
vt 0.780104 0.640522
vt 0.569834 0.710375
vt 0.569950 0.640270
vt 0.639990 0.640377
vt 0.570026 0.570220
vt 0.570147 0.500097
vt 0.640163 0.500195
vt 0.709777 0.996171
vt 0.709820 0.920801
vt 0.779856 0.921022
vt 0.569600 0.996270
vt 0.569557 0.920480
vt 0.639587 0.920888
vt 0.569669 0.850524
vt 0.569782 0.780407
vt 0.639748 0.780491
vt 0.849799 0.996265
vt 0.849887 0.920979
vt 0.919990 0.921152
vt 0.849961 0.850929
vt 0.850082 0.780826
vt 0.920248 0.781018
vt 0.149185 0.709829
vt 0.149252 0.639567
vt 0.219483 0.639745
vt 0.003706 0.709734
vt 0.000517 0.639638
vt 0.079052 0.639549
vt 0.003687 0.569507
vt 0.000100 0.499260
vt 0.080030 0.499391
vt 0.148780 0.995478
vt 0.148883 0.920132
vt 0.218960 0.920355
vt 0.000128 0.998496
vt 0.000243 0.919915
vt 0.078723 0.920117
vt 0.003555 0.849853
vt 0.000465 0.779812
vt 0.078871 0.779880
vt 0.429124 0.996119
vt 0.429337 0.920317
vt 0.499450 0.919970
vt 0.288898 0.995713
vt 0.289033 0.920306
vt 0.359291 0.920561
vt 0.289204 0.850235
vt 0.289273 0.780023
vt 0.359482 0.780130
vt 0.150038 0.149070
vt 0.150112 0.079020
vt 0.220144 0.078976
vt 0.004702 0.148831
vt 0.001602 0.078826
vt 0.080009 0.078847
vt 0.149669 0.429363
vt 0.149679 0.359449
vt 0.219896 0.359479
vt 0.003923 0.429031
vt 0.000990 0.358909
vt 0.079498 0.359251
vt 0.004408 0.288853
vt 0.001395 0.218809
vt 0.079751 0.218982
vt 0.429974 0.429781
vt 0.430050 0.359731
vt 0.500193 0.359838
vt 0.289819 0.429586
vt 0.289879 0.359577
vt 0.360010 0.359623
vt 0.290008 0.289427
vt 0.290061 0.219431
vt 0.360253 0.219509
vt 0.430331 0.149476
vt 0.430444 0.079520
vt 0.500551 0.080031
vt 0.290176 0.149242
vt 0.290181 0.079198
vt 0.360413 0.079112
vt 0.429590 0.710189
vt 0.429662 0.640080
vt 0.499807 0.640163
vt 0.289411 0.710009
vt 0.289479 0.639847
vt 0.359618 0.639996
vt 0.289617 0.569830
vt 0.289691 0.499707
vt 0.359837 0.499806
vt 0.850177 0.710792
vt 0.850320 0.640552
vt 0.920500 0.640749
vt 0.850331 0.570638
vt 0.850496 0.500502
vt 0.919969 0.500611
vt 0.851003 0.149967
vt 0.851119 0.079870
vt 0.921278 0.079886
vt 0.851223 0.004524
vt 0.921294 0.001405
vt 0.781190 0.001241
vt 0.921100 0.150045
vt 0.780862 0.149850
vt 0.996446 0.150150
vt 0.999759 0.080088
vt 0.920286 0.570718
vt 0.780213 0.570556
vt 0.920219 0.710981
vt 0.779988 0.710713
vt 0.995590 0.711147
vt 0.999009 0.641092
vt 0.359727 0.569951
vt 0.219580 0.569769
vt 0.359573 0.710135
vt 0.219397 0.709953
vt 0.499713 0.710309
vt 0.290223 0.003827
vt 0.360288 0.000602
vt 0.220187 0.000620
vt 0.360417 0.149292
vt 0.220142 0.149143
vt 0.500468 0.149504
vt 0.360157 0.289493
vt 0.220012 0.289287
vt 0.359924 0.429663
vt 0.219787 0.429445
vt 0.500097 0.429854
vt 0.079779 0.289019
vt 0.079713 0.429283
vt 0.001711 0.000332
vt 0.080205 0.000440
vt 0.079988 0.148950
vt 0.359466 0.850362
vt 0.219140 0.850151
vt 0.078901 0.849958
vt 0.079489 0.569503
vt 0.079113 0.709807
vt 0.920010 0.851049
vt 0.779858 0.850856
vt 0.998396 0.921172
vt 0.998287 0.999666
vt 0.639583 0.850707
vt 0.499534 0.850496
vt 0.640076 0.570338
vt 0.499903 0.570147
vt 0.639843 0.710508
vt 0.920887 0.290195
vt 0.780604 0.290048
vt 0.920511 0.430499
vt 0.780420 0.430233
vt 0.996313 0.430495
vt 0.999482 0.360365
vt 0.640428 0.289866
vt 0.500288 0.289692
vt 0.640273 0.430050
vt 0.570878 0.003881
vt 0.641017 0.000905
vt 0.500641 0.000100
vt 0.640535 0.149639
vt 0.711104 0.004288
vt 0.996294 0.290269
vt 0.999535 0.220191
vt 0.995296 0.851168
vt 0.998603 0.781191
vt 0.150201 0.003733
vt 0.430402 0.003729
vt 0.996075 0.570970
vt 0.999899 0.500742
vt 0.999874 0.001508
vt 0.779813 0.999378
vt 0.639713 0.999397
vt 0.919794 0.999557
vt 0.218812 0.998761
vt 0.078709 0.998598
vt 0.499361 0.999900
vt 0.358985 0.999095
vn -0.701400 0.126400 0.701400
vn 0.000000 0.089700 0.996000
vn -0.695900 0.177100 0.695900
vn 0.000000 0.126200 0.992000
vn -0.678800 0.280200 0.678800
vn 0.000000 0.202200 0.979400
vn 0.678800 0.280200 0.678800
vn 0.979400 0.202200 0.000000
vn 0.678800 0.280200 -0.678800
vn -0.678800 0.280200 -0.678800
vn 0.000000 0.202200 -0.979400
vn 0.695900 0.177100 -0.695900
vn 0.992000 0.126200 0.000000
vn -0.695900 0.177100 -0.695900
vn 0.000000 0.126200 -0.992000
vn 0.695900 0.177100 0.695900
vn 0.701400 0.126400 0.701400
vn 0.996000 0.089700 0.000000
vn 0.701400 0.126400 -0.701400
vn -0.701400 0.126400 -0.701400
vn 0.000000 0.089700 -0.996000
vn -0.996000 0.089700 0.000000
vn -0.992000 0.126200 0.000000
vn -0.979400 0.202200 0.000000
usemtl Material.001
s 1
f 1/1/1 2/2/2 3/3/1
f 5/4/3 6/5/4 7/6/3
f 9/7/5 10/8/6 11/9/5
f 13/10/3 14/11/4 15/12/3
f 17/13/5 18/14/6 19/15/5
f 21/16/3 22/17/4 23/18/3
f 25/19/5 26/20/6 27/21/5
f 29/22/3 30/23/4 31/24/3
f 33/25/5 34/26/6 35/27/5
f 37/28/5 38/29/6 39/30/5
f 41/31/5 42/32/6 43/33/5
f 45/34/3 46/35/4 47/36/3
f 49/37/3 50/38/4 51/39/3
f 53/40/3 54/41/4 55/42/3
f 57/43/5 58/44/6 59/45/5
f 61/46/5 62/47/6 63/48/5
f 65/49/3 66/50/4 67/51/3
f 69/52/3 70/53/4 71/54/3
f 73/55/1 74/56/2 75/57/1
f 77/58/5 78/59/6 79/60/5
f 81/61/5 82/62/6 83/63/5
f 85/64/3 86/65/4 87/66/3
f 89/67/5 90/68/6 91/69/5
f 93/70/5 94/71/6 95/72/5
f 97/73/3 98/74/4 99/75/3
f 101/76/5 102/77/6 103/78/5
f 105/79/3 106/80/4 107/81/3
f 109/82/5 110/83/6 111/84/5
f 113/85/5 114/86/6 115/87/5
f 117/88/5 118/89/6 119/90/5
f 121/91/3 122/92/4 123/93/3
f 125/94/5 126/95/6 127/96/5
f 129/97/3 130/98/4 131/99/3
f 133/100/5 134/101/6 135/102/5
f 137/103/5 138/104/6 139/105/5
f 141/106/3 142/107/4 143/108/3
f 145/109/5 146/110/6 147/111/5
f 149/112/5 150/113/6 151/114/5
f 153/115/1 154/116/2 155/117/1
f 157/118/3 158/119/4 159/120/3
f 161/121/3 162/122/4 163/123/3
f 165/124/3 166/125/4 167/126/3
f 169/127/5 170/128/6 171/129/5
f 173/130/1 174/131/2 175/132/1
f 177/133/3 178/134/4 179/135/3
f 181/136/1 182/137/2 183/138/1
f 185/139/5 186/140/6 187/141/5
f 189/142/3 190/143/4 191/144/3
f 193/145/5 194/146/6 195/147/5
f 197/148/7 198/149/8 195/147/7
f 39/30/9 199/150/8 197/148/9
f 193/145/7 196/151/8 63/48/7
f 35/27/9 40/152/8 193/145/9
f 39/30/10 194/146/11 193/145/10
f 63/48/9 196/151/8 200/153/9
f 195/147/10 202/154/11 200/153/10
f 189/142/7 192/155/8 187/141/7
f 67/51/12 32/156/13 189/142/12
f 31/24/14 190/143/15 189/142/14
f 185/139/7 188/157/8 95/72/7
f 27/21/9 68/158/8 185/139/9
f 67/51/14 186/140/15 185/139/14
f 95/72/9 188/157/8 203/159/9
f 187/141/10 205/160/11 203/159/10
f 181/136/16 184/161/13 179/135/16
f 99/75/12 24/162/13 181/136/12
f 23/18/14 182/137/15 181/136/14
f 177/133/16 180/163/13 131/99/16
f 19/15/9 100/164/8 177/133/9
f 99/75/14 178/134/15 177/133/14
f 173/130/16 176/165/13 15/12/16
f 131/99/12 180/163/13 173/130/12
f 179/135/14 174/131/15 173/130/14
f 206/166/7 207/167/8 171/129/7
f 135/102/9 208/168/8 206/166/9
f 169/127/16 172/169/13 163/123/16
f 11/9/9 136/170/8 169/127/9
f 135/102/10 170/128/11 169/127/10
f 165/124/16 168/171/13 7/6/16
f 163/123/12 172/169/13 165/124/12
f 171/129/10 166/125/11 165/124/10
f 161/121/16 164/172/13 159/120/16
f 143/108/12 12/173/13 161/121/12
f 11/9/10 162/122/11 161/121/10
f 157/118/17 160/174/18 183/138/17
f 23/18/12 144/175/13 157/118/12
f 143/108/14 158/119/15 157/118/14
f 153/115/17 156/176/18 3/3/17
f 183/138/19 160/174/18 153/115/19
f 159/120/14 154/116/15 153/115/14
f 149/112/7 152/177/8 147/111/7
f 145/109/16 148/178/13 107/81/16
f 141/106/16 144/175/13 23/18/16
f 107/81/12 148/178/13 141/106/12
f 147/111/10 142/107/11 141/106/10
f 209/179/7 210/180/8 139/105/7
f 137/103/7 140/181/8 151/114/7
f 133/100/7 136/170/8 11/9/7
f 151/114/9 140/181/8 133/100/9
f 139/105/10 134/101/11 133/100/10
f 129/97/7 132/182/8 127/96/7
f 111/84/9 20/183/8 129/97/9
f 19/15/10 130/98/11 129/97/10
f 111/84/10 126/95/11 125/94/10
f 127/96/10 122/92/11 121/91/10
f 117/88/7 120/184/8 115/87/7
f 115/87/10 110/83/11 109/82/10
f 105/79/7 108/185/8 103/78/7
f 101/76/7 104/186/8 119/90/7
f 97/73/7 100/164/8 19/15/7
f 119/90/9 104/186/8 97/73/9
f 103/78/10 98/74/11 97/73/10
f 93/70/7 96/187/8 91/69/7
f 79/60/9 28/188/8 93/70/9
f 27/21/10 94/71/11 93/70/10
f 79/60/10 90/68/11 89/67/10
f 91/69/10 211/189/11 212/190/10
f 85/64/7 88/191/8 83/63/7
f 123/93/12 16/192/13 85/64/12
f 15/12/14 86/65/15 85/64/14
f 123/93/14 82/62/15 81/61/14
f 83/63/10 78/59/11 77/58/10
f 73/55/16 76/193/13 71/54/16
f 175/132/19 4/194/18 73/55/19
f 3/3/20 74/56/21 73/55/20
f 69/52/16 72/195/13 87/66/16
f 15/12/12 176/165/13 69/52/12
f 175/132/20 70/53/21 69/52/20
f 65/49/7 68/158/8 27/21/7
f 87/66/12 72/195/13 65/49/12
f 71/54/14 66/50/15 65/49/14
f 61/46/7 64/196/8 59/45/7
f 47/36/12 36/197/13 61/46/12
f 35/27/10 62/47/11 61/46/10
f 57/43/16 60/198/13 191/144/16
f 31/24/12 48/199/13 57/43/12
f 47/36/14 58/44/15 57/43/14
f 191/144/12 60/198/13 213/200/12
f 59/45/10 215/201/11 213/200/10
f 53/40/16 56/202/13 51/39/16
f 155/117/19 8/203/18 53/40/19
f 7/6/14 54/41/15 53/40/14
f 49/37/17 52/204/18 75/57/17
f 3/3/19 156/176/18 49/37/19
f 155/117/20 50/38/21 49/37/20
f 45/34/16 48/199/13 31/24/16
f 75/57/19 52/204/18 45/34/19
f 51/39/14 46/35/15 45/34/14
f 216/205/7 217/206/8 43/33/7
f 167/126/12 218/207/13 216/205/12
f 41/31/16 44/208/13 55/42/16
f 7/6/12 168/171/13 41/31/12
f 167/126/14 42/32/15 41/31/14
f 37/28/7 40/152/8 35/27/7
f 55/42/12 44/208/13 37/28/12
f 43/33/10 38/29/11 37/28/10
f 219/209/7 199/150/8 39/30/7
f 43/33/9 217/206/8 219/209/9
f 33/25/16 36/197/13 47/36/16
f 51/39/12 56/202/13 33/25/12
f 55/42/14 34/26/15 33/25/14
f 59/45/9 64/196/8 220/210/9
f 63/48/10 201/211/11 220/210/10
f 29/22/16 32/156/13 67/51/16
f 71/54/12 76/193/13 29/22/12
f 75/57/20 30/23/21 29/22/20
f 25/19/7 28/188/8 79/60/7
f 83/63/9 88/191/8 25/19/9
f 87/66/14 26/20/15 25/19/14
f 91/69/9 96/187/8 221/212/9
f 95/72/10 204/213/11 221/212/10
f 21/16/16 24/162/13 99/75/16
f 103/78/9 108/185/8 21/16/9
f 107/81/14 22/17/15 21/16/14
f 17/13/7 20/183/8 111/84/7
f 115/87/9 120/184/8 17/13/9
f 119/90/10 18/14/11 17/13/10
f 13/10/16 16/192/13 123/93/16
f 127/96/9 132/182/8 13/10/9
f 131/99/14 14/11/15 13/10/14
f 222/214/7 208/168/8 135/102/7
f 139/105/9 210/180/8 222/214/9
f 9/7/16 12/173/13 143/108/16
f 147/111/9 152/177/8 9/7/9
f 151/114/10 10/8/11 9/7/10
f 5/4/17 8/203/18 155/117/17
f 159/120/12 164/172/13 5/4/12
f 163/123/14 6/5/15 5/4/14
f 223/215/16 218/207/13 167/126/16
f 171/129/9 207/167/8 223/215/9
f 1/1/17 4/194/18 175/132/17
f 179/135/12 184/161/13 1/1/12
f 183/138/20 2/2/21 1/1/20
f 187/141/9 192/155/8 224/216/9
f 191/144/14 214/217/15 224/216/14
f 195/147/9 198/149/8 225/218/9
f 4/194/22 1/1/1 3/3/1
f 8/203/23 5/4/3 7/6/3
f 12/173/24 9/7/5 11/9/5
f 16/192/23 13/10/3 15/12/3
f 20/183/24 17/13/5 19/15/5
f 24/162/23 21/16/3 23/18/3
f 28/188/24 25/19/5 27/21/5
f 32/156/23 29/22/3 31/24/3
f 36/197/24 33/25/5 35/27/5
f 40/152/24 37/28/5 39/30/5
f 44/208/24 41/31/5 43/33/5
f 48/199/23 45/34/3 47/36/3
f 52/204/23 49/37/3 51/39/3
f 56/202/23 53/40/3 55/42/3
f 60/198/24 57/43/5 59/45/5
f 64/196/24 61/46/5 63/48/5
f 68/158/23 65/49/3 67/51/3
f 72/195/23 69/52/3 71/54/3
f 76/193/22 73/55/1 75/57/1
f 80/219/24 77/58/5 79/60/5
f 84/220/24 81/61/5 83/63/5
f 88/191/23 85/64/3 87/66/3
f 92/221/24 89/67/5 91/69/5
f 96/187/24 93/70/5 95/72/5
f 100/164/23 97/73/3 99/75/3
f 104/186/24 101/76/5 103/78/5
f 108/185/23 105/79/3 107/81/3
f 112/222/24 109/82/5 111/84/5
f 116/223/24 113/85/5 115/87/5
f 120/184/24 117/88/5 119/90/5
f 124/224/23 121/91/3 123/93/3
f 128/225/24 125/94/5 127/96/5
f 132/182/23 129/97/3 131/99/3
f 136/170/24 133/100/5 135/102/5
f 140/181/24 137/103/5 139/105/5
f 144/175/23 141/106/3 143/108/3
f 148/178/24 145/109/5 147/111/5
f 152/177/24 149/112/5 151/114/5
f 156/176/22 153/115/1 155/117/1
f 160/174/23 157/118/3 159/120/3
f 164/172/23 161/121/3 163/123/3
f 168/171/23 165/124/3 167/126/3
f 172/169/24 169/127/5 171/129/5
f 176/165/22 173/130/1 175/132/1
f 180/163/23 177/133/3 179/135/3
f 184/161/22 181/136/1 183/138/1
f 188/157/24 185/139/5 187/141/5
f 192/155/23 189/142/3 191/144/3
f 196/151/24 193/145/5 195/147/5
f 194/146/6 197/148/7 195/147/7
f 194/146/11 39/30/9 197/148/9
f 62/47/6 193/145/7 63/48/7
f 62/47/11 35/27/9 193/145/9
f 40/152/24 39/30/10 193/145/10
f 201/211/11 63/48/9 200/153/9
f 196/151/24 195/147/10 200/153/10
f 186/140/6 189/142/7 187/141/7
f 186/140/15 67/51/12 189/142/12
f 32/156/23 31/24/14 189/142/14
f 94/71/6 185/139/7 95/72/7
f 94/71/11 27/21/9 185/139/9
f 68/158/23 67/51/14 185/139/14
f 204/213/11 95/72/9 203/159/9
f 188/157/24 187/141/10 203/159/10
f 178/134/4 181/136/16 179/135/16
f 178/134/15 99/75/12 181/136/12
f 24/162/23 23/18/14 181/136/14
f 130/98/4 177/133/16 131/99/16
f 130/98/11 19/15/9 177/133/9
f 100/164/23 99/75/14 177/133/14
f 14/11/4 173/130/16 15/12/16
f 14/11/15 131/99/12 173/130/12
f 180/163/23 179/135/14 173/130/14
f 170/128/6 206/166/7 171/129/7
f 170/128/11 135/102/9 206/166/9
f 162/122/4 169/127/16 163/123/16
f 162/122/11 11/9/9 169/127/9
f 136/170/24 135/102/10 169/127/10
f 6/5/4 165/124/16 7/6/16
f 6/5/15 163/123/12 165/124/12
f 172/169/24 171/129/10 165/124/10
f 158/119/4 161/121/16 159/120/16
f 158/119/15 143/108/12 161/121/12
f 12/173/24 11/9/10 161/121/10
f 182/137/2 157/118/17 183/138/17
f 182/137/15 23/18/12 157/118/12
f 144/175/23 143/108/14 157/118/14
f 2/2/2 153/115/17 3/3/17
f 2/2/21 183/138/19 153/115/19
f 160/174/23 159/120/14 153/115/14
f 146/110/6 149/112/7 147/111/7
f 106/80/4 145/109/16 107/81/16
f 22/17/4 141/106/16 23/18/16
f 22/17/15 107/81/12 141/106/12
f 148/178/24 147/111/10 141/106/10
f 138/104/6 209/179/7 139/105/7
f 150/113/6 137/103/7 151/114/7
f 10/8/6 133/100/7 11/9/7
f 10/8/11 151/114/9 133/100/9
f 140/181/24 139/105/10 133/100/10
f 126/95/6 129/97/7 127/96/7
f 126/95/11 111/84/9 129/97/9
f 20/183/24 19/15/10 129/97/10
f 112/222/24 111/84/10 125/94/10
f 128/225/24 127/96/10 121/91/10
f 114/86/6 117/88/7 115/87/7
f 116/223/24 115/87/10 109/82/10
f 102/77/6 105/79/7 103/78/7
f 118/89/6 101/76/7 119/90/7
f 18/14/6 97/73/7 19/15/7
f 18/14/11 119/90/9 97/73/9
f 104/186/24 103/78/10 97/73/10
f 90/68/6 93/70/7 91/69/7
f 90/68/11 79/60/9 93/70/9
f 28/188/24 27/21/10 93/70/10
f 80/219/24 79/60/10 89/67/10
f 92/221/24 91/69/10 212/190/10
f 82/62/6 85/64/7 83/63/7
f 82/62/15 123/93/12 85/64/12
f 16/192/23 15/12/14 85/64/14
f 124/224/23 123/93/14 81/61/14
f 84/220/24 83/63/10 77/58/10
f 70/53/4 73/55/16 71/54/16
f 70/53/21 175/132/19 73/55/19
f 4/194/22 3/3/20 73/55/20
f 86/65/4 69/52/16 87/66/16
f 86/65/15 15/12/12 69/52/12
f 176/165/22 175/132/20 69/52/20
f 26/20/6 65/49/7 27/21/7
f 26/20/15 87/66/12 65/49/12
f 72/195/23 71/54/14 65/49/14
f 58/44/6 61/46/7 59/45/7
f 58/44/15 47/36/12 61/46/12
f 36/197/24 35/27/10 61/46/10
f 190/143/4 57/43/16 191/144/16
f 190/143/15 31/24/12 57/43/12
f 48/199/23 47/36/14 57/43/14
f 214/217/15 191/144/12 213/200/12
f 60/198/24 59/45/10 213/200/10
f 50/38/4 53/40/16 51/39/16
f 50/38/21 155/117/19 53/40/19
f 8/203/23 7/6/14 53/40/14
f 74/56/2 49/37/17 75/57/17
f 74/56/21 3/3/19 49/37/19
f 156/176/22 155/117/20 49/37/20
f 30/23/4 45/34/16 31/24/16
f 30/23/21 75/57/19 45/34/19
f 52/204/23 51/39/14 45/34/14
f 42/32/6 216/205/7 43/33/7
f 42/32/15 167/126/12 216/205/12
f 54/41/4 41/31/16 55/42/16
f 54/41/15 7/6/12 41/31/12
f 168/171/23 167/126/14 41/31/14
f 34/26/6 37/28/7 35/27/7
f 34/26/15 55/42/12 37/28/12
f 44/208/24 43/33/10 37/28/10
f 38/29/6 219/209/7 39/30/7
f 38/29/11 43/33/9 219/209/9
f 46/35/4 33/25/16 47/36/16
f 46/35/15 51/39/12 33/25/12
f 56/202/23 55/42/14 33/25/14
f 215/201/11 59/45/9 220/210/9
f 64/196/24 63/48/10 220/210/10
f 66/50/4 29/22/16 67/51/16
f 66/50/15 71/54/12 29/22/12
f 76/193/22 75/57/20 29/22/20
f 78/59/6 25/19/7 79/60/7
f 78/59/11 83/63/9 25/19/9
f 88/191/23 87/66/14 25/19/14
f 211/189/11 91/69/9 221/212/9
f 96/187/24 95/72/10 221/212/10
f 98/74/4 21/16/16 99/75/16
f 98/74/11 103/78/9 21/16/9
f 108/185/23 107/81/14 21/16/14
f 110/83/6 17/13/7 111/84/7
f 110/83/11 115/87/9 17/13/9
f 120/184/24 119/90/10 17/13/10
f 122/92/4 13/10/16 123/93/16
f 122/92/11 127/96/9 13/10/9
f 132/182/23 131/99/14 13/10/14
f 134/101/6 222/214/7 135/102/7
f 134/101/11 139/105/9 222/214/9
f 142/107/4 9/7/16 143/108/16
f 142/107/11 147/111/9 9/7/9
f 152/177/24 151/114/10 9/7/10
f 154/116/2 5/4/17 155/117/17
f 154/116/15 159/120/12 5/4/12
f 164/172/23 163/123/14 5/4/14
f 166/125/4 223/215/16 167/126/16
f 166/125/11 171/129/9 223/215/9
f 174/131/2 1/1/17 175/132/17
f 174/131/15 179/135/12 1/1/12
f 184/161/22 183/138/20 1/1/20
f 205/160/11 187/141/9 224/216/9
f 192/155/23 191/144/14 224/216/14
f 202/154/11 195/147/9 225/218/9
